<svg xmlns="http://www.w3.org/2000/svg" viewBox="0 0 138.74 93.08"><defs><style>.cls-1{fill:#0b162a;}.cls-2{fill:#0fc;}</style></defs><title>logo</title><g id="Laag_2" data-name="Laag 2"><g id="Layer_1" data-name="Layer 1"><polygon class="cls-1" points="45.8 13.22 22.9 0 0 13.22 0 39.67 22.9 52.89 45.8 39.67 45.8 13.22"/><polygon class="cls-1" points="92.27 13.22 69.37 0 46.47 13.22 46.47 39.67 69.37 52.89 92.27 39.67 92.27 13.22"/><polygon class="cls-1" points="138.74 13.22 115.83 0 92.93 13.22 92.93 39.67 115.83 52.89 138.74 39.67 138.74 13.22"/><path class="cls-2" d="M23.63,13.65c4.42,0,8.46,1.33,8.46,6.54a6,6,0,0,1-3.61,5.48,6,6,0,0,1,4.94,6.23c0,5.09-3.53,7.79-10,7.79h-11V36.52l1.29-.12c.67-.08,1.14-.31,1.14-1.1V17.09L12.58,17V13.65Zm-4,10.69h2.9c3.37,0,4.74-1.57,4.74-3.64,0-2.82-1.92-3.45-4.46-3.45H19.59Zm0,11.67h3.68c3.84,0,5.1-1.76,5.1-4.15,0-2.63-1.81-4-4.9-4H19.59Z"/><path class="cls-2" d="M59.94,39.69V36.52l1.29-.12c.67-.08,1.14-.31,1.14-1.1V17.09L60.14,17V13.65H78.07v6.5l-4,.27V18.85c0-.74-.08-1.21-1.14-1.21H67.15v6.7h9v4h-9v7.32h6.3c1,0,1.1-.47,1.1-1.25v-2l4,.28v7Z"/><path class="cls-2" d="M106.41,39.69V36.52l1.29-.12c.66-.08,1.13-.31,1.13-1.1V17.09L106.6,17V13.65h17.94v6.5l-4,.27V18.85c0-.74-.07-1.21-1.13-1.21h-5.8v6.7h9v4h-9v7.32h6.31c1,0,1.09-.47,1.09-1.25v-2l4,.28v7Z"/><polygon class="cls-2" points="115.54 53.41 92.64 40.19 69.74 53.41 69.74 79.85 92.64 93.08 115.54 79.85 115.54 53.41"/><path class="cls-1" d="M90.4,74.74a12.08,12.08,0,0,1-6.73,1.87c-5.29,0-8.6-3.25-8.6-10,0-7.58,5.12-10.13,9.33-10.13a13.71,13.71,0,0,1,5.74,1.2v5l-3,.2V60.55c0-.56-.09-.79-.62-1a7.89,7.89,0,0,0-2.16-.23c-3.92,0-5.65,2.63-5.65,7,0,4.59,1.52,7.37,5.09,7.37a6.83,6.83,0,0,0,3.1-.7V68.65h0l-2.25-.09V66.08h7.28v2.34l-.67.06c-.61.06-.85.26-.85,1Z"/><path class="cls-1" d="M101.14,76.64c-5.21,0-8.49-3.39-8.49-10.06,0-7.49,4.71-10.13,8.81-10.13,4.36,0,8.28,2.69,8.28,10.13C109.74,73.28,106.26,76.64,101.14,76.64Zm.2-3c3.72,0,4.77-3.51,4.77-7,0-3-.79-7.19-4.82-7.19-3.75,0-5,3.48-5,7C96.31,69.76,97.13,73.68,101.34,73.68Z"/></g></g></svg>